<svg xmlns="http://www.w3.org/2000/svg" width="1400" height="860" viewBox="0 0 1400 860" role="img" aria-labelledby="title desc">
  <title id="title">Meater BBQ Cards preview</title>
  <desc id="desc">Preview of two Home Assistant dashboard cards for Meater probe sensors.</desc>
  <defs>
    <linearGradient id="ember" x1="0" y1="0" x2="1" y2="0">
      <stop offset="0" stop-color="#d84315"/>
      <stop offset="0.55" stop-color="#ff6b2c"/>
      <stop offset="1" stop-color="#ffb300"/>
    </linearGradient>
    <linearGradient id="cool" x1="0" y1="0" x2="1" y2="1">
      <stop offset="0" stop-color="#191716"/>
      <stop offset="1" stop-color="#282421"/>
    </linearGradient>
    <filter id="shadow" x="-10%" y="-10%" width="120%" height="130%">
      <feDropShadow dx="0" dy="28" stdDeviation="30" flood-color="#000" flood-opacity="0.28"/>
    </filter>
  </defs>

  <rect width="1400" height="860" fill="#11100f"/>
  <rect x="56" y="56" width="1288" height="748" rx="42" fill="#171513"/>
  <text x="92" y="116" fill="#f5f1ec" font-family="Arial, sans-serif" font-size="42" font-weight="800">Meater BBQ Cards</text>
  <text x="92" y="154" fill="#a9a29b" font-family="Arial, sans-serif" font-size="22" font-weight="700">Mushroom-style live cooking and temperature history for Home Assistant</text>

  <g filter="url(#shadow)">
    <rect x="92" y="204" width="596" height="548" rx="34" fill="url(#cool)" stroke="#3a3430"/>
    <circle cx="148" cy="264" r="36" fill="#5a2d1f"/>
    <text x="135" y="276" fill="#ff6b2c" font-family="Arial, sans-serif" font-size="34" font-weight="900">M</text>
    <text x="204" y="254" fill="#a9a29b" font-family="Arial, sans-serif" font-size="18" font-weight="800">Ribeye</text>
    <text x="204" y="286" fill="#fff8f0" font-family="Arial, sans-serif" font-size="34" font-weight="900">Meater probe</text>
    <rect x="508" y="234" width="132" height="48" rx="24" fill="#302b28"/>
    <circle cx="536" cy="258" r="8" fill="#43a047"/>
    <text x="558" y="266" fill="#d6d0ca" font-family="Arial, sans-serif" font-size="19" font-weight="900">Started</text>

    <text x="124" y="396" fill="#fff8f0" font-family="Arial, sans-serif" font-size="92" font-weight="900">54&#176;</text>
    <text x="128" y="430" fill="#a9a29b" font-family="Arial, sans-serif" font-size="20" font-weight="800">core temperature</text>
    <rect x="404" y="350" width="106" height="44" rx="22" fill="#4b2a20"/>
    <text x="430" y="379" fill="#ff6b2c" font-family="Arial, sans-serif" font-size="20" font-weight="900">133&#176;C</text>
    <rect x="524" y="350" width="96" height="44" rx="22" fill="#273b24"/>
    <text x="550" y="379" fill="#66bb6a" font-family="Arial, sans-serif" font-size="20" font-weight="900">58&#176;C</text>

    <rect x="124" y="472" width="516" height="74" rx="24" fill="#2a2725"/>
    <text x="150" y="510" fill="#a9a29b" font-family="Arial, sans-serif" font-size="18" font-weight="900">Progress to target</text>
    <text x="584" y="510" fill="#d6d0ca" font-family="Arial, sans-serif" font-size="18" font-weight="900">93%</text>
    <rect x="150" y="522" width="464" height="12" rx="6" fill="#4a4540"/>
    <rect x="150" y="522" width="432" height="12" rx="6" fill="url(#ember)"/>

    <rect x="124" y="578" width="242" height="96" rx="28" fill="#2a2725"/>
    <circle cx="170" cy="626" r="26" fill="#5a2d1f"/>
    <text x="202" y="616" fill="#a9a29b" font-family="Arial, sans-serif" font-size="18" font-weight="900">Ambient</text>
    <text x="202" y="650" fill="#fff8f0" font-family="Arial, sans-serif" font-size="34" font-weight="900">133&#176;C</text>
    <rect x="150" y="662" width="190" height="8" rx="4" fill="#4a4540"/>
    <rect x="150" y="662" width="86" height="8" rx="4" fill="#ffb300"/>

    <rect x="398" y="578" width="242" height="96" rx="28" fill="#2a2725"/>
    <circle cx="444" cy="626" r="26" fill="#3a4b28"/>
    <text x="476" y="616" fill="#a9a29b" font-family="Arial, sans-serif" font-size="18" font-weight="900">Target</text>
    <text x="476" y="650" fill="#fff8f0" font-family="Arial, sans-serif" font-size="34" font-weight="900">58&#176;C</text>
    <rect x="424" y="662" width="190" height="8" rx="4" fill="#4a4540"/>
    <rect x="424" y="662" width="172" height="8" rx="4" fill="#43a047"/>
  </g>

  <g filter="url(#shadow)">
    <rect x="736" y="204" width="572" height="548" rx="34" fill="url(#cool)" stroke="#3a3430"/>
    <circle cx="792" cy="264" r="36" fill="#5a2d1f"/>
    <text x="778" y="276" fill="#ff6b2c" font-family="Arial, sans-serif" font-size="34" font-weight="900">H</text>
    <text x="848" y="254" fill="#a9a29b" font-family="Arial, sans-serif" font-size="18" font-weight="800">BBQ history</text>
    <text x="848" y="286" fill="#fff8f0" font-family="Arial, sans-serif" font-size="34" font-weight="900">Temperature history</text>
    <rect x="1198" y="234" width="64" height="48" rx="24" fill="#302b28"/>
    <text x="1214" y="266" fill="#d6d0ca" font-family="Arial, sans-serif" font-size="19" font-weight="900">3h</text>

    <rect x="780" y="338" width="484" height="292" rx="28" fill="#2a2725"/>
    <line x1="830" y1="400" x2="1210" y2="400" stroke="#57504a" stroke-width="2"/>
    <line x1="830" y1="470" x2="1210" y2="470" stroke="#57504a" stroke-width="2"/>
    <line x1="830" y1="540" x2="1210" y2="540" stroke="#57504a" stroke-width="2"/>
    <path d="M830 570 C900 552 944 516 996 486 C1058 450 1126 430 1210 418" fill="none" stroke="#ff6b2c" stroke-width="8" stroke-linecap="round"/>
    <path d="M830 505 C900 492 952 466 1008 452 C1078 433 1142 430 1210 422" fill="none" stroke="#ffb300" stroke-width="8" stroke-linecap="round"/>
    <path d="M830 424 L1210 424" fill="none" stroke="#43a047" stroke-width="6" stroke-dasharray="14 14" stroke-linecap="round"/>

    <circle cx="792" cy="686" r="8" fill="#ff6b2c"/>
    <text x="808" y="693" fill="#a9a29b" font-family="Arial, sans-serif" font-size="18" font-weight="900">Core</text>
    <circle cx="888" cy="686" r="8" fill="#ffb300"/>
    <text x="904" y="693" fill="#a9a29b" font-family="Arial, sans-serif" font-size="18" font-weight="900">Ambient</text>
    <circle cx="1018" cy="686" r="8" fill="#43a047"/>
    <text x="1034" y="693" fill="#a9a29b" font-family="Arial, sans-serif" font-size="18" font-weight="900">Target</text>
  </g>
</svg>
